
<svg width="100%" height="100%" viewBox="0 0 800 600" xmlns="http://www.w3.org/2000/svg">
  <g id="person">
    <ellipse cx="400" cy="550" rx="180" ry="20" fill="#e0e0e0"/>
    <path d="M360 500h80v-100h-80z" fill="#90caf9"/>
    <circle cx="400" cy="380" r="40" fill="#64b5f6"/>
    <path d="M370 420c-15 0-20 20-20 30h100c0-10-5-30-20-30z" fill="#42a5f5"/>
    <rect x="370" y="430" width="60" height="40" rx="10" fill="#1976d2"/>
  </g>

  <g id="laptop">
    <rect x="300" y="470" width="200" height="20" fill="#263238"/>
    <rect x="320" y="430" width="160" height="40" rx="4" fill="#37474f"/>
    <rect x="330" y="440" width="140" height="20" rx="2" fill="#90a4ae"/>
  </g>

  <g id="icons">
    <!-- WhatsApp Icon -->
    <circle cx="250" cy="200" r="40" fill="#ffffff" stroke="#90caf9" stroke-width="3"/>
    <path d="M245 180a20 20 0 0 1 20 20c0 11-9 20-20 20h-1l-12 5 3-13a20 20 0 0 1 10-32z" fill="#4CAF50"/>
    <path d="M243 193c2 4 6 7 10 9 1 1 2 1 3-1l2-3c0-1 0-1-1-2l-3-2c-1-1-1 0-2 1l-1 1c-2-1-4-3-5-5l1-1c0-1 0-2-1-2l-3-2c-1-1-2 0-3 1l-1 3c0 1 0 2 1 3z" fill="#fff"/>

    <!-- Email Icon -->
    <circle cx="400" cy="120" r="40" fill="#ffffff" stroke="#90caf9" stroke-width="3"/>
    <path d="M380 110h40a2 2 0 0 1 2 2v16a2 2 0 0 1-2 2h-40a2 2 0 0 1-2-2v-16a2 2 0 0 1 2-2z" fill="#42a5f5"/>
    <polyline points="380,110 400,125 420,110" fill="none" stroke="#fff" stroke-width="2"/>

    <!-- Instagram Direct Icon -->
    <circle cx="550" cy="200" r="40" fill="#ffffff" stroke="#90caf9" stroke-width="3"/>
    <path d="M535 190h30a2 2 0 0 1 2 2v16a2 2 0 0 1-2 2h-30a2 2 0 0 1-2-2v-16a2 2 0 0 1 2-2z" fill="#E1306C"/>
    <path d="M537 191l13 9 13-9" fill="none" stroke="#fff" stroke-width="2"/>
  </g>
</svg>
